<svg xmlns="http://www.w3.org/2000/svg" xmlns:xlink="http://www.w3.org/1999/xlink" fill="none" version="1.1" width="1280" height="720" viewBox="0 0 1280 720"><clipPath id="master_svg0_1322_0"><rect x="0" y="0" width="1280" height="720" rx="0"/></clipPath><clipPath id="master_svg1_1361_1761"><rect x="496" y="181" width="275" height="282" rx="0"/></clipPath><clipPath id="master_svg2_1361_1765"><rect x="517" y="82" width="233" height="138" rx="0"/></clipPath><g clip-path="url(#master_svg0_1322_0)" style="mix-blend-mode:passthrough"><rect x="0" y="0" width="1280" height="720" rx="0" fill="#FFFFFF" fill-opacity="1"/><g><g style="mix-blend-mode:passthrough"><g><g style="mix-blend-mode:passthrough"><path d="M337.0469,518.392L369.375,518.392L369.375,509.4701L347.7031,509.4701L347.7031,465.392L337.0469,465.392L337.0469,518.392ZM395.75,519.392C400.7188,519.392,405.8281,517.6732,409.797,514.9389L406.188,508.5014C403.2344,510.267,400.4375,511.1889,397.1875,511.1889C391.1406,511.1889,386.8281,507.8607,385.9531,501.392L410.797,501.392C411.094,500.392,411.297,498.4545,411.297,496.5014C411.297,485.4701,405.5469,477.392,394.4531,477.392C384.875,477.392,375.6562,485.5326,375.6562,498.3764C375.6562,511.5482,384.4375,519.392,395.75,519.392ZM385.7344,494.267C386.6094,488.5639,390.3438,485.6107,394.5938,485.6107C399.8594,485.6107,402.2344,488.9857,402.2344,494.267L385.7344,494.267ZM434.35900000000004,536.173C447.828,536.173,456.328,529.9701,456.328,521.7982C456.328,514.7201,451,511.6889,441.281,511.6889L434.35900000000004,511.6889C429.688,511.6889,428.031,510.5639,428.031,508.5014C428.031,506.7982,428.75,505.9545,429.75,505.017C431.562,505.6576,433.438,505.9545,434.938,505.9545C443.656,505.9545,450.562,501.4232,450.562,492.2826C450.562,489.767,449.781,487.5482,448.76599999999996,486.1732L455.60900000000004,486.1732L455.60900000000004,478.392L441.14099999999996,478.392C439.406,477.8295,437.312,477.392,434.938,477.392C426.438,477.392,418.734,482.517,418.734,491.9232C418.734,496.6732,421.328,500.4857,424.141,502.5014L424.141,502.7826C421.688,504.517,419.672,507.2982,419.672,510.2045C419.672,513.5639,421.188,515.6576,423.344,517.017L423.344,517.3764C419.531,519.4701,417.594,522.3764,417.594,525.7826C417.594,532.9232,424.859,536.173,434.35900000000004,536.173ZM434.938,499.392C431.484,499.392,428.672,496.7357,428.672,491.9232C428.672,487.2514,431.406,484.6732,434.938,484.6732C438.547,484.6732,441.344,487.2514,441.344,491.9232C441.344,496.7357,438.547,499.392,434.938,499.392ZM435.953,529.392C430.125,529.392,426.375,527.517,426.375,524.1889C426.375,522.4389,427.172,520.8451,428.969,519.392C430.484,519.4701,432.141,519.6107,434.51599999999996,519.6107L439.48400000000004,519.6107C443.797,519.6107,446.172,520.4389,446.172,523.4232C446.172,526.7201,442.078,529.392,435.953,529.392ZM480.75,519.392C485.719,519.392,490.828,517.6732,494.797,514.9389L491.188,508.5014C488.23400000000004,510.267,485.438,511.1889,482.188,511.1889C476.14099999999996,511.1889,471.828,507.8607,470.953,501.392L495.797,501.392C496.094,500.392,496.297,498.4545,496.297,496.5014C496.297,485.4701,490.547,477.392,479.453,477.392C469.875,477.392,460.656,485.5326,460.656,498.3764C460.656,511.5482,469.438,519.392,480.75,519.392ZM470.73400000000004,494.267C471.60900000000004,488.5639,475.344,485.6107,479.594,485.6107C484.85900000000004,485.6107,487.23400000000004,488.9857,487.23400000000004,494.267L470.73400000000004,494.267ZM505.188,518.392L515.766,518.392L515.766,490.9701C518.719,488.0482,520.875,486.4701,524.125,486.4701C528.078,486.4701,529.812,488.6107,529.812,494.8139L529.812,518.392L540.391,518.392L540.391,493.5326C540.391,483.4545,536.641,477.392,527.938,477.392C522.469,477.392,518.359,480.2826,514.828,483.7357L514.609,483.7357L513.828,478.392L505.188,478.392L505.188,518.392ZM565.3589999999999,519.392C569.547,519.392,573.578,517.1732,576.531,514.2201L576.812,514.2201L577.6089999999999,518.392L586.25,518.392L586.25,461.267L575.656,461.267L575.656,475.4545L576.0160000000001,481.7982C573.1410000000001,479.1264,570.328,477.392,565.797,477.392C557.156,477.392,548.875,485.4701,548.875,498.4389C548.875,511.4857,555.281,519.392,565.3589999999999,519.392ZM568.1089999999999,510.6889C562.781,510.6889,559.75,506.5639,559.75,498.2514C559.75,490.3764,563.562,486.1107,568.1089999999999,486.1107C570.688,486.1107,573.219,486.892,575.656,489.0951L575.656,506.5639C573.3589999999999,509.5482,570.906,510.6889,568.1089999999999,510.6889ZM608.703,519.392C619.1410000000001,519.392,624.7660000000001,513.7826,624.7660000000001,506.7201C624.7660000000001,499.392,618.8589999999999,496.6889,613.531,494.7045C609.203,493.142,605.531,492.0639,605.531,489.1576C605.531,486.8764,607.2660000000001,485.3139,610.938,485.3139C613.8910000000001,485.3139,616.688,486.7357,619.578,488.7357L624.328,482.3607C621.0160000000001,479.7826,616.4839999999999,477.392,610.6410000000001,477.392C601.422,477.392,595.594,482.517,595.594,489.6576C595.594,496.3295,601.281,499.392,606.3910000000001,501.3139C610.6410000000001,502.9545,614.828,504.2982,614.828,507.2826C614.828,509.767,613.0160000000001,511.4857,608.9839999999999,511.4857C605.172,511.4857,601.797,509.8451,598.188,507.142L593.3589999999999,513.7826C597.3910000000001,517.0951,603.297,519.392,608.703,519.392ZM672.938,519.392C680.281,519.392,686.625,516.5951,690.297,512.9857L690.297,489.392L671.281,489.392L671.281,498.1107L680.719,498.1107L680.719,508.2357C679.281,509.4857,676.6089999999999,510.1889,674.094,510.1889C663.578,510.1889,658.328,503.4545,658.328,492.0639C658.328,480.5326,664.375,473.5482,673.297,473.5482C678.062,473.5482,681.078,475.517,683.75,478.0482L689.438,471.2357C685.969,467.7045,680.6410000000001,464.392,672.938,464.392C658.75,464.392,647.375,474.7045,647.375,492.4232C647.375,509.767,658.469,519.392,672.938,519.392ZM711.047,519.392C715.719,519.392,719.7660000000001,517.1732,723.219,514.0639L723.578,514.0639L724.297,518.392L732.938,518.392L732.938,495.0951C732.938,483.517,727.672,477.392,717.453,477.392C711.125,477.392,705.3589999999999,479.8451,700.672,482.7357L704.422,489.7514C708.172,487.5326,711.7660000000001,485.892,715.5160000000001,485.892C720.4839999999999,485.892,722.203,488.892,722.344,492.8139C706.156,494.517,699.172,499.017,699.172,507.5014C699.172,514.2826,703.844,519.392,711.047,519.392ZM714.578,511.1264C711.4839999999999,511.1264,709.25,509.767,709.25,506.642C709.25,503.017,712.4839999999999,500.392,722.344,499.2514L722.344,507.2045C719.828,509.7045,717.594,511.1264,714.578,511.1264ZM744.188,518.392L754.7660000000001,518.392L754.7660000000001,490.9701C757.578,487.9076,760.172,486.4701,762.469,486.4701C766.3589999999999,486.4701,768.156,488.6107,768.156,494.8139L768.156,518.392L778.672,518.392L778.672,490.9701C781.547,487.9076,784.1410000000001,486.4701,786.453,486.4701C790.2660000000001,486.4701,792.062,488.6107,792.062,494.8139L792.062,518.392L802.578,518.392L802.578,493.5326C802.578,483.4545,798.688,477.392,790.125,477.392C784.938,477.392,780.969,480.5639,777.2339999999999,484.4545C775.3589999999999,479.9857,771.969,477.392,766.219,477.392C760.953,477.392,757.219,480.2826,753.828,483.8139L753.6089999999999,483.8139L752.828,478.392L744.188,478.392L744.188,518.392ZM813.188,518.392L823.766,518.392L823.766,478.392L813.188,478.392L813.188,518.392ZM818.516,471.9232C822.109,471.9232,824.625,469.6889,824.625,466.1576C824.625,462.7045,822.109,460.392,818.516,460.392C814.7660000000001,460.392,812.3910000000001,462.7045,812.3910000000001,466.1576C812.3910000000001,469.6889,814.7660000000001,471.9232,818.516,471.9232ZM835.188,518.392L845.766,518.392L845.766,490.9701C848.719,488.0482,850.875,486.4701,854.125,486.4701C858.078,486.4701,859.812,488.6107,859.812,494.8139L859.812,518.392L870.391,518.392L870.391,493.5326C870.391,483.4545,866.641,477.392,857.938,477.392C852.469,477.392,848.359,480.2826,844.828,483.7357L844.609,483.7357L843.828,478.392L835.188,478.392L835.188,518.392ZM895.359,536.173C908.828,536.173,917.328,529.9701,917.328,521.7982C917.328,514.7201,912,511.6889,902.281,511.6889L895.359,511.6889C890.688,511.6889,889.031,510.5639,889.031,508.5014C889.031,506.7982,889.75,505.9545,890.75,505.017C892.562,505.6576,894.438,505.9545,895.938,505.9545C904.656,505.9545,911.562,501.4232,911.562,492.2826C911.562,489.767,910.781,487.5482,909.766,486.1732L916.609,486.1732L916.609,478.392L902.141,478.392C900.406,477.8295,898.312,477.392,895.938,477.392C887.438,477.392,879.734,482.517,879.734,491.9232C879.734,496.6732,882.328,500.4857,885.141,502.5014L885.141,502.7826C882.688,504.517,880.672,507.2982,880.672,510.2045C880.672,513.5639,882.188,515.6576,884.344,517.017L884.344,517.3764C880.531,519.4701,878.594,522.3764,878.594,525.7826C878.594,532.9232,885.859,536.173,895.359,536.173ZM895.938,499.392C892.484,499.392,889.672,496.7357,889.672,491.9232C889.672,487.2514,892.406,484.6732,895.938,484.6732C899.547,484.6732,902.344,487.2514,902.344,491.9232C902.344,496.7357,899.547,499.392,895.938,499.392ZM896.953,529.392C891.125,529.392,887.375,527.517,887.375,524.1889C887.375,522.4389,888.172,520.8451,889.969,519.392C891.484,519.4701,893.141,519.6107,895.516,519.6107L900.484,519.6107C904.797,519.6107,907.172,520.4389,907.172,523.4232C907.172,526.7201,903.078,529.392,896.953,529.392Z" fill="#242424" fill-opacity="1"/></g><g style="mix-blend-mode:passthrough"><path d="M561.54688,625.392L593.875,625.392L593.875,616.4701L572.2031,616.4701L572.2031,572.392L561.54688,572.392L561.54688,625.392ZM619.4531,626.392C631.7656,626.392,639.0469,618.9857,639.0469,610.3295C639.0469,602.6889,634.7969,598.5482,628.3125,595.892L621.3281,593.1107C616.7969,591.2514,613.0469,589.892,613.0469,586.1107C613.0469,582.6107,615.9375,580.5482,620.6094,580.5482C625.0781,580.5482,628.6094,582.1889,631.9844,584.892L637.3906,578.3139C633.0625,573.9232,626.875,571.392,620.6094,571.392C609.875,571.392,602.1719,578.1732,602.1719,586.7514C602.1719,594.4701,607.6562,598.7514,613.0469,600.892L620.1094,603.9701C624.8594,605.9701,628.1719,607.1889,628.1719,611.1107C628.1719,614.8295,625.2188,617.1889,619.6719,617.1889C615,617.1889,609.875,614.8295,606.1406,611.3295L600.0156,618.6264C605.2031,623.6576,612.3281,626.392,619.4531,626.392ZM671.438,626.392C678.781,626.392,685.125,623.5951,688.797,619.9857L688.797,596.392L669.781,596.392L669.781,605.1107L679.219,605.1107L679.219,615.2357C677.781,616.4857,675.109,617.1889,672.594,617.1889C662.078,617.1889,656.828,610.4545,656.828,599.0639C656.828,587.5326,662.875,580.5482,671.797,580.5482C676.562,580.5482,679.578,582.517,682.25,585.0482L687.938,578.2357C684.469,574.7045,679.141,571.392,671.438,571.392C657.25,571.392,645.875,581.7045,645.875,599.4232C645.875,616.767,656.969,626.392,671.438,626.392Z" fill="#242424" fill-opacity="1"/></g><g style="mix-blend-mode:passthrough"><path d="M609.19531,671.0706294824219L609.19531,672.3479694824218L618.8984,672.3479694824218L618.8984,671.0706294824219L609.19531,671.0706294824219ZM610.4375,673.7776694824219C611,676.3206694824219,611.50391,679.7131694824219,611.66211,681.6350694824218L612.9805,681.2483694824218C612.7988,679.3791694824218,612.2246,676.0686694824219,611.62695,673.5022694824219L610.4375,673.7776694824219ZM612.5469,667.8889894824218C612.8867,668.8264894824218,613.25,670.0628094824219,613.3906,670.8655494824219L614.7266,670.4553894824219C614.5625,669.6467994824219,614.1641,668.4690594824219,613.8242,667.5315594824219L612.5469,667.8889894824218ZM608.35156,682.4729694824218L608.35156,683.7561694824219L619.3848,683.7561694824219L619.3848,682.4729694824218L615.7344,682.4729694824218C616.3965,680.0237694824219,617.1348,676.4319694824219,617.6035,673.5959694824219L616.1797,673.3557694824219C615.8574,676.1038694824218,615.1367,680.0237694824219,614.4746,682.4729694824218L608.35156,682.4729694824218ZM605.2168,667.6604694824218L605.2168,671.4631994824218L602.984375,671.4631994824218L602.984375,672.7229694824218L605.2168,672.7229694824218L605.2168,676.7600694824218C604.30273,677.0120694824219,603.4707,677.2288694824218,602.773438,677.3928694824219L603.16602,678.7229694824218L605.2168,678.1018694824219L605.2168,682.9182694824219C605.2168,683.1526694824219,605.14648,683.2229694824218,604.91211,683.2229694824218C604.71289,683.2463694824219,604.05078,683.2463694824219,603.3125,683.2229694824218C603.4707,683.5862694824219,603.65234,684.1252694824219,603.70508,684.4475694824218C604.82422,684.4709694824219,605.49219,684.4299694824218,605.91992,684.2131694824219C606.37109,684.0022694824219,606.55273,683.6565694824219,606.55273,682.9182694824219L606.55273,677.7034694824218L608.60352,677.0881694824219L608.43945,675.8342694824219L606.55273,676.3791694824218L606.55273,672.7229694824218L608.43945,672.7229694824218L608.43945,671.4631994824218L606.55273,671.4631994824218L606.55273,667.6663294824219L605.2168,667.6604694824218ZM625.291,674.4631694824219C625.9707,675.3538694824218,626.709,676.5901694824219,627.002,677.3928694824219L628.168,676.8831694824219C627.8809,676.0862694824219,627.1074,674.8850694824218,626.4043,674.0120694824219L625.291,674.4631694824219ZM634.5254,673.9182694824219C634.0918,674.8499694824219,633.2832,676.1741694824219,632.6504,676.9944694824219L633.6406,677.4104694824218C634.3086,676.6487694824219,635.1172,675.4651694824219,635.8027,674.4104694824218L634.5254,673.9182694824219ZM623.9023,669.7229694824218L634.707,669.7229694824218L634.707,671.8967994824219L623.9023,671.8967994824219L623.9023,669.7229694824218ZM622.5547,668.5393794824219L622.5547,673.8127694824219C622.5547,676.7190694824219,622.3906,680.7795694824218,620.5742,683.6799694824218C620.9141,683.8088694824219,621.5117,684.1604694824218,621.7637,684.4006694824219C623.6504,681.3713694824219,623.9023,676.9006694824219,623.9023,673.8127694824219L623.9023,673.0979694824218L636.0547,673.0979694824218L636.0547,668.5393794824219L622.5547,668.5393794824219ZM629.7734,673.6838694824219L629.7734,677.4866694824219L624.1895,677.4866694824219L624.1895,678.7229694824218L628.8008,678.7229694824218C627.4883,680.4807694824219,625.4492,682.1096694824219,623.4922,682.9416694824218C623.7793,683.1819694824219,624.1719,683.6799694824218,624.3887,684.0139694824219C626.3516,683.0530694824218,628.4023,681.2600694824218,629.7734,679.2795694824218L629.7734,684.4592694824219L631.0859,684.4592694824219L631.0859,679.1682694824219C632.3809,681.2366694824219,634.3965000000001,683.0120694824219,636.4883,683.9377694824219C636.7051,683.5862694824219,637.0977,683.0881694824219,637.4023,682.8303694824219C635.3516,682.0686694824219,633.3359,680.4983694824218,632.0938,678.7229694824218L637.0801,678.7229694824218L637.0801,677.4866694824219L631.0859,677.4866694824219L631.0859,673.6838694824219L629.7734,673.6838694824219ZM641.2168,667.6604694824218L641.2168,684.5295694824218L642.5352,684.5295694824218L642.5352,667.6604694824218L641.2168,667.6604694824218ZM639.4355,671.1936694824219C639.3652,672.7170694824218,639.0605,674.7327694824219,638.5566,675.9104694824218L639.6348,676.2737694824219C640.1562,674.9670694824218,640.4784999999999,672.8752694824219,640.5195,671.3342994824219L639.4355,671.1936694824219ZM642.623,671.0237494824219C643.127,672.0784694824218,643.7012,673.4963694824219,643.918,674.3459694824219L644.9844,673.8010694824219C644.75,672.9866694824219,644.1523,671.6214094824219,643.6133,670.5901594824219L642.623,671.0237494824219ZM652.3789,669.7874194824219C651.752,670.9534394824219,650.8672,671.9495294824219,649.8066,672.7698694824219C648.7988,671.9319494824218,647.9902,670.9358594824218,647.4102,669.7874194824219L652.3789,669.7874194824219ZM645.0547,668.5979694824218L645.0547,669.7874194824219L646.332,669.7874194824219L646.1152,669.8635894824218C646.7656,671.2815594824219,647.6445,672.5120694824219,648.7461,673.5139694824219C647.252,674.4573694824219,645.5409999999999,675.0901694824219,643.7949,675.4534694824218C644.0645,675.7463694824219,644.3340000000001,676.2737694824219,644.4805,676.5959694824219C646.3672,676.1272694824219,648.1836,675.4182694824219,649.7891,674.3635694824219C651.1543,675.3655694824218,652.7949,676.0920694824218,654.6289,676.5432694824219C654.8281,676.1799694824218,655.2090000000001,675.6350694824218,655.5137,675.3655694824218C653.75,675.0198694824219,652.2031,674.3987694824219,650.8848,673.5491694824219C652.3262,672.3655694824218,653.498,670.8421094824218,654.2012,668.9260894824218L653.3340000000001,668.5276594824219L653.0996,668.5979694824218L645.0547,668.5979694824218ZM649.1211,676.2737694824219L649.1211,678.3479694824218L644.8906,678.3479694824218L644.8906,679.5725694824218L649.1211,679.5725694824218L649.1211,682.7541694824218L644.0469,682.7541694824218L644.0469,683.9729694824218L655.2969,683.9729694824218L655.2969,682.7541694824218L650.4746,682.7541694824218L650.4746,679.5725694824218L654.5938,679.5725694824218L654.5938,678.3479694824218L650.4746,678.3479694824218L650.4746,676.2737694824219L649.1211,676.2737694824219Z" fill="#000000" fill-opacity="0.5"/></g></g></g><g clip-path="url(#master_svg1_1361_1761)"><g><path d="M644.9583740234375,380.02099999999996L644.9583740234375,404.25L702.2503740234375,404.25L702.2503740234375,427.75L564.7500740234375,427.75L564.7500740234375,404.25L622.0413740234375,404.25L622.0413740234375,380.02099999999996C576.2068740234375,374.094,541.8333740234375,334.122,541.8333740234375,286.75L541.8333740234375,216.25L725.1663740234375,216.25L725.1663740234375,286.75C725.1663740234375,334.123,690.7923740234376,374.095,644.9583740234375,380.02099999999996ZM507.4583740234375,239.75L530.3750740234375,239.75L530.3750740234375,286.75L507.4583740234375,286.75L507.4583740234375,239.75ZM736.6253740234375,239.75L759.5413740234375,239.75L759.5413740234375,286.75L736.6253740234375,286.75L736.6253740234375,239.75Z" fill="#3287CD" fill-opacity="1"/></g></g><g clip-path="url(#master_svg2_1361_1765)"><g><path d="M544.1835938476562,111.89996612548828L584.9585938476563,127.99996612548827L625.5976938476563,94.30499612548829C629.4696938476562,91.09162312548828,637.5316938476562,91.09162312548828,641.4026938476562,94.30499612548829L682.0416938476562,127.99996612548827L722.8166938476562,111.89996612548828C725.9676938476563,110.65836612548829,730.0496938476563,110.61446612548828,733.2746938476562,111.78736612548828C736.4996938476563,112.96036612548828,738.2806938476563,115.13646612548828,737.8356938476562,117.36246612548828L721.8846938476563,197.6729661254883C721.3086938476563,200.56796612548828,717.1656938476563,202.7499661254883,712.2446938476562,202.7499661254883L554.7559938476562,202.7499661254883C549.8340938476563,202.7499661254883,545.6914938476563,200.56796612548828,545.1155938476562,197.6729661254883L529.1648383476562,117.35676612548828C528.7247738476563,115.13176612548828,530.5066538476563,112.95786612548828,533.7307738476562,111.78646612548829C536.9548938476562,110.61506612548828,541.0341938476563,110.65936612548828,544.1835938476562,111.89996612548828ZM633.5006938476563,168.2499661254883C644.2236938476562,168.2499661254883,652.9166938476562,163.10126612548828,652.9166938476562,156.7499661254883C652.9166938476562,150.3987661254883,644.2236938476562,145.24996612548827,633.5006938476563,145.24996612548827C622.7767938476562,145.24996612548827,614.0835938476563,150.3987661254883,614.0835938476563,156.7499661254883C614.0835938476563,163.10126612548828,622.7767938476562,168.2499661254883,633.5006938476563,168.2499661254883Z" fill="#FFE500" fill-opacity="1"/></g></g></g></g></svg>